<svg width="1080" height="304" viewBox="0 0 1080 304" fill="none" xmlns="http://www.w3.org/2000/svg">
<path d="M96.9778 162.293L98.7139 166.51L100.202 169.734L102.434 175.934L103.674 179.903L105.411 186.6L106.899 192.552L108.139 197.265L109.627 201.233L111.611 205.201L114.091 208.426L116.324 210.906L118.308 212.642L122.028 215.122L126.245 216.859L130.461 218.099L133.685 218.595H135.918H138.398L142.862 218.099L146.831 217.603L152.039 216.363L158.24 214.378L163.2 212.642L167.665 210.41L172.129 207.93L176.594 204.953L180.314 201.729L182.298 199.249L184.035 196.273L185.275 193.296L186.267 190.32L186.515 187.096V184.367V180.399L185.771 175.438L184.531 170.726L183.042 166.758L181.554 162.541L180.066 158.325L178.33 154.356L176.842 150.884L174.114 146.916L170.393 143.443L166.673 141.459L162.704 139.475L159.232 138.235L151.047 137.739L144.102 138.235L137.654 138.979L130.461 140.219L125.253 141.459L119.052 142.699L114.091 143.691L110.371 144.187H105.659L100.202 143.195L94.9936 141.459L91.2732 139.723L86.8087 136.498L83.0884 133.026L79.368 128.066L76.1437 122.857L73.6634 117.153L71.4312 111.2L69.199 104.007L68.2069 98.7987L67.2148 93.3421L66.9667 88.8777V85.9014V83.4211L67.2148 81.1889L67.7108 78.9567L68.2069 77.2205L68.7029 75.7324L69.199 74.4923L69.943 73.0041L70.6871 71.764L71.6792 70.2758L72.9193 69.0357L74.6555 67.2995L76.1437 66.0594L78.1279 64.5713L82.0963 62.8351L85.8166 61.3469L89.289 60.3548L94.4975 59.1147L97.9699 58.3706L101.442 57.6266L105.907 56.6345L110.123 55.8904L113.843 54.8983L117.068 54.1542L119.796 53.4101L122.276 52.6661L124.261 51.674L126.493 50.4338L128.229 48.9457L129.965 46.9615L131.949 43.9852L133.437 40.7609L134.43 37.0405L134.926 32.576V29.3517L134.43 26.1274L133.437 21.6629L131.949 17.4465L130.213 14.2222L127.981 10.5018L125.501 7.52551L122.276 4.79723L119.3 3.06106L115.58 1.32489L112.107 0.580811L107.395 0.580811L102.186 0.580811L97.9699 0.580811L93.5054 0.580811L90.0331 0.828836L86.8087 1.32489L83.5844 1.82094L80.8561 2.31699L77.8798 3.06106L74.9035 4.05316L72.1753 5.29328L69.943 6.78143L67.7108 8.51761L65.9746 11.4939L64.9825 14.4702V18.4386L65.4786 22.159L66.7187 27.1195L68.4549 32.328L69.943 36.7925L71.1832 40.7609L71.9272 44.2332L72.1753 47.2095V52.6661L71.1832 57.3785L69.199 61.3469L66.2227 64.5713L62.7503 67.2995L58.2859 69.7798L52.3333 72.5081C50.7624 72.9214 47.5712 73.7482 47.3728 73.7482C47.1743 73.7482 43.6524 74.5749 41.9162 74.9883L37.2037 75.7324L31.9952 75.9804L27.5308 76.4764L21.5782 77.2205L16.6177 78.7087L11.6572 81.1889L8.9289 82.9251L6.44865 85.1573L3.47235 89.1257L1.48815 93.5902L0.248025 99.0467L0 102.767L0 107.48L0.248025 110.952L0.744075 114.424L1.73617 119.137L3.47235 124.345L5.9526 131.042L8.43285 136.498L10.9131 140.219L13.8894 143.195L16.6177 145.179L19.842 146.916L23.3143 147.908L27.2827 148.404H31.0031L36.4597 147.908L40.4281 147.412L43.9004 146.916L47.6208 145.923L51.8372 144.931L56.0536 144.187L61.2622 143.691H66.7187H71.4312L75.8956 144.435L80.1121 145.675L84.0805 147.412L88.0489 150.388L91.2732 153.612L94.0015 157.085L96.9778 162.293Z" fill="#F59E0B"/>
<path d="M141.622 230.748L143.358 229.756L146.831 227.771L149.559 226.283L153.279 224.547L168.409 218.346L177.586 214.626L180.81 212.642L184.283 210.162L187.755 206.937L190.483 203.713L192.219 201.233L193.956 197.76L195.444 194.288L196.436 191.56L197.18 188.087L197.428 184.615V181.143V177.174L197.18 174.198L196.684 171.718L195.94 168.493L194.452 164.277L192.467 159.317L189.491 153.364L187.259 149.892L184.531 146.171L181.306 142.451L178.826 140.219L174.858 136.746L170.889 134.018L166.921 131.786L163.448 130.546L160.968 129.802L158.736 129.306L156.008 128.809L154.024 128.561L150.303 128.313H147.079H144.351L140.878 128.561L138.398 128.809L136.414 129.057L134.43 129.306L132.693 129.554L130.213 130.05L127.733 130.546L125.501 131.042L123.02 131.538L120.788 131.786L117.316 132.282L113.843 132.778L110.123 133.274H107.643H105.163L101.69 132.778L98.714 131.786L96.2337 130.546L93.5054 128.809L90.0331 125.585L87.0568 122.113L84.8246 118.64L82.8404 114.672L80.6081 109.464L78.872 104.503L77.6318 100.287L76.8878 97.5583L76.3917 95.0781V92.5978L77.1358 89.1255L78.6239 86.6452L80.8562 83.9169L82.8404 82.4288L84.8246 81.1887L88.2969 79.9485L91.5212 78.9564L98.4659 77.2203L103.674 76.2282L109.131 75.4841L115.084 74.988H120.292H124.013L128.229 75.4841L132.445 76.9722L135.67 78.7084L138.398 81.1887L140.878 84.165L142.614 86.6452L145.343 91.6057L148.071 96.8142L150.303 102.519L154.024 109.712L157.744 114.672L161.96 118.888L166.177 121.617L169.649 123.353L173.121 124.593L178.826 125.833L184.035 126.329L190.979 126.577L194.948 126.329L200.404 125.833L207.349 124.593L214.79 123.353L219.502 122.361L223.719 121.369L228.679 120.377L231.903 120.129H235.376L237.608 120.377L241.08 121.369L243.809 122.609L247.033 124.593L250.257 127.073L253.978 131.538L257.202 137.242L260.178 143.443L262.658 149.644L263.899 154.356L264.395 158.076L264.891 163.285L264.395 167.749L262.162 172.71L259.93 175.438L257.45 177.67L255.218 179.159L252.489 180.399L249.513 181.391L246.041 182.135L242.072 183.127L239.592 183.871L234.632 185.359L229.671 187.095L224.463 189.328L219.75 191.808L216.03 194.536L212.805 197.264L210.077 200.241L207.597 203.713L206.109 206.937L205.117 210.658L204.621 213.386V218.098L205.117 223.059L206.109 228.267L207.597 232.98L210.325 240.421L213.302 248.357L216.278 256.046L218.51 263.239L219.502 267.207L219.998 270.68V273.904V277.128L219.006 281.345L216.526 286.305L213.054 290.026L209.829 292.754L206.357 294.738L200.9 297.466L197.18 298.955L190.731 301.435L183.787 302.923L180.81 303.171L177.09 303.419H173.37L169.401 303.171L166.673 302.675L162.952 301.187L159.232 299.203L155.616 296.97L150.551 292.506L146.087 287.049L141.126 279.609L138.15 273.408L134.182 265.223L132.197 259.767L130.957 255.302L130.709 253.566L130.461 251.582V249.846V248.109V246.621L130.709 244.637L131.453 242.653L132.445 240.173L134.182 237.444L135.918 235.46L137.406 233.972L141.622 230.748Z" fill="#0891B2"/>
<path d="M259.434 269.44H263.651L267.867 268.695L272.331 267.703L277.788 265.719L282.749 263.735L287.957 261.255L292.422 258.774L295.894 255.798L298.622 252.326L300.11 248.357L300.854 245.133V242.157L300.606 239.677L299.862 235.708L297.63 229.508L292.422 218.098L287.213 207.433L284.981 201.481L283.741 198.008L282.997 195.28L282.749 192.8V190.32V187.343V184.863L283.493 182.383C283.823 181.556 284.485 179.853 284.485 179.655C284.485 179.456 285.642 177.753 286.221 176.926L288.453 174.198L291.677 171.47L294.902 169.237L298.374 167.253L302.342 165.517L306.559 164.029L310.527 162.541L313.008 161.797L315.984 161.053L318.712 160.557L321.688 159.813L324.169 159.068L326.401 157.828L328.633 156.588L330.369 154.852L331.857 152.868L332.85 150.884L333.594 148.651L334.09 146.171V143.195L333.842 140.467L333.594 138.482L333.098 136.498L332.354 133.77L331.361 130.794L330.369 128.065L328.633 124.841L326.897 121.865L324.665 118.392L322.184 115.168L319.456 111.944L317.72 110.208L315.736 108.719L313.752 107.231L311.519 105.743L309.535 104.503L307.551 103.511L304.327 103.015H301.598H299.366L297.382 103.263L293.662 104.007L289.197 104.999L284.237 105.991L277.54 106.735L273.572 107.231L268.115 107.727H263.899H258.938L254.97 107.231L250.009 106.487L245.793 105.247L241.328 103.759L238.6 102.271L234.88 100.039L232.647 98.3023L230.415 96.5662L227.687 94.3339L225.703 92.1017L223.223 89.3734L221.486 86.8932L219.75 84.661L218.51 81.9327L216.774 78.7084L214.79 74.74L211.813 70.5235L209.581 68.2913L207.101 65.8111L204.125 63.8269L201.148 62.3387L197.18 61.3466L193.212 60.6025H189.491H185.027H181.554L178.082 60.8506L174.61 61.3466L171.633 61.8427L168.905 62.3387L165.681 63.0828L162.704 63.8269L159.728 64.819L157.496 65.563L155.512 66.5551L153.528 67.7953L151.543 69.5314L150.303 71.2676L149.063 74.2439L148.815 77.7163L149.063 80.4445L149.559 82.9248L150.799 86.8932L151.791 90.1175L153.031 93.0938L154.768 96.8142L157.248 101.031L159.728 104.751L162.952 107.975L166.673 110.704L169.649 112.44L173.866 113.928L177.834 114.672L183.787 115.168H188.251L192.467 114.672L196.436 114.176C198.172 113.928 201.694 113.432 201.892 113.432C202.091 113.432 204.455 113.101 205.613 112.936L209.085 112.44L212.309 111.944L216.03 111.696H219.75H223.223H227.687L231.159 111.944L234.88 112.44L236.864 112.688L238.848 112.936L241.08 113.432L243.065 114.176L245.297 115.168L249.513 117.152L254.474 121.121C255.548 122.195 257.797 124.395 258.194 124.593C258.591 124.791 261.17 128.313 262.41 130.05L265.635 134.514L269.355 141.955L271.587 147.659L273.076 154.108L274.068 159.316V164.525L273.82 168.741L272.579 174.198L270.595 178.662L268.611 181.639L266.627 183.871L264.395 185.855L261.914 187.343L259.682 188.583L256.21 189.824L251.993 190.816L248.273 192.056L244.057 193.544L239.344 195.032L234.136 197.264L230.663 199L226.943 201.233L222.975 203.961L219.75 207.185L217.518 210.41L216.03 213.634L215.286 216.61L215.038 220.579L215.286 223.803L215.534 226.035L216.526 229.756L218.51 235.46L221.238 241.165L223.719 246.125L226.447 250.59L229.175 254.558L232.151 258.03L235.624 261.255L240.088 264.231L245.049 266.959L251.001 268.695L255.218 269.44H259.434Z" fill="#0891B2"/>
<path d="M363.418 169.119V38.0075C363.418 29.9441 366.406 23.6546 372.383 19.1392C378.36 14.6237 386.535 12.3659 396.907 12.3659C407.279 12.3659 415.277 14.4624 420.903 18.6554C426.704 22.8484 429.605 28.9765 429.605 37.0399V151.46C429.605 154.846 430.308 157.265 431.714 158.717C433.296 160.007 435.933 160.652 439.625 160.652C439.625 169.844 434 174.44 422.749 174.44C413.432 174.44 408.773 168.877 408.773 157.749V111.546H384.25V149.283L385.304 172.021C379.327 172.828 373.438 173.231 367.637 173.231C364.824 173.231 363.418 171.86 363.418 169.119ZM384.25 38.0075V95.5803H408.773V38.0075C408.773 34.9435 407.63 32.605 405.345 30.9924C403.06 29.2184 400.071 28.3315 396.379 28.3315C392.688 28.3315 389.699 29.2184 387.414 30.9924C385.304 32.605 384.25 34.9435 384.25 38.0075ZM471.571 156.54H481.855C484.844 156.54 487.217 155.733 488.975 154.121C490.909 152.347 491.875 150.089 491.875 147.347V75.9862C491.875 70.3417 489.327 67.5196 484.228 67.5196C481.591 67.5196 479.042 68.4872 476.581 70.4224C474.296 72.1965 472.626 74.1317 471.571 76.2281V156.54ZM471.571 172.021V191.374L473.417 207.339C468.67 209.114 463.221 210 457.068 210C453.552 210 451.794 208.79 451.794 206.371V73.5672C451.794 70.1805 451.091 67.7615 449.685 66.3101C448.454 64.8587 445.993 64.133 442.301 64.133C442.125 59.9399 443.268 56.7147 445.729 54.4569C448.366 52.1991 452.497 51.0703 458.123 51.0703C463.924 51.0703 467.967 53.57 470.253 58.5692C475.702 53.57 481.855 51.0703 488.711 51.0703C495.567 51.0703 501.105 53.2474 505.324 57.6016C509.543 61.7947 511.652 67.8422 511.652 75.7443V146.38C511.652 154.443 508.928 160.733 503.478 165.248C498.028 169.764 490.645 172.021 481.328 172.021H471.571ZM551.4 156.54H561.684C564.673 156.54 567.046 155.733 568.804 154.121C570.738 152.347 571.704 150.089 571.704 147.347V75.9862C571.704 70.3417 569.156 67.5196 564.057 67.5196C561.42 67.5196 558.871 68.4872 556.41 70.4224C554.125 72.1965 552.455 74.1317 551.4 76.2281V156.54ZM551.4 172.021V191.374L553.246 207.339C548.499 209.114 543.05 210 536.897 210C533.381 210 531.623 208.79 531.623 206.371V73.5672C531.623 70.1805 530.92 67.7615 529.514 66.3101C528.283 64.8587 525.822 64.133 522.13 64.133C521.954 59.9399 523.097 56.7147 525.558 54.4569C528.195 52.1991 532.326 51.0703 537.952 51.0703C543.753 51.0703 547.796 53.57 550.082 58.5692C555.531 53.57 561.684 51.0703 568.54 51.0703C575.396 51.0703 580.934 53.2474 585.153 57.6016C589.372 61.7947 591.481 67.8422 591.481 75.7443V146.38C591.481 154.443 588.756 160.733 583.307 165.248C577.858 169.764 570.475 172.021 561.157 172.021H551.4ZM611.188 172.021V38.2494C611.188 34.7016 610.486 32.2019 609.079 30.7505C607.672 29.1379 605.123 28.3315 601.432 28.3315C601.257 24.1384 602.487 20.8325 605.123 18.4134C607.76 15.9944 611.979 14.7849 617.781 14.7849C623.757 14.7849 627.89 17.4459 630.174 22.7677C637.03 17.4459 644.061 14.7849 651.27 14.7849C668.674 14.7849 677.375 22.687 677.375 38.4913V80.8242C677.375 88.2425 674.827 93.8869 669.728 97.7574C675.705 101.467 678.694 107.595 678.694 116.142V146.38C678.694 154.443 675.618 160.733 669.465 165.248C663.488 169.764 655.314 172.021 644.941 172.021H611.188ZM646.26 30.7505C641.513 30.7505 636.767 32.9276 632.02 37.2818V90.5003H644.941C648.458 90.5003 651.27 89.6134 653.379 87.8394C655.489 86.0654 656.544 83.7271 656.544 80.8242V39.9428C656.544 33.8145 653.116 30.7505 646.26 30.7505ZM632.02 106.466V156.056H645.469C649.16 156.056 652.149 155.249 654.434 153.637C656.719 151.863 657.862 149.444 657.862 146.38V116.142C657.862 113.078 656.719 110.739 654.434 109.127C652.149 107.353 649.16 106.466 645.469 106.466H632.02ZM737.261 73.3253C737.261 67.197 736.645 60.5851 735.415 53.4893C740.689 52.8443 746.401 52.5217 752.555 52.5217C755.544 52.5217 757.038 53.7312 757.038 56.1502V151.943C757.038 155.33 757.654 157.749 758.883 159.201C760.29 160.652 762.839 161.378 766.53 161.378C766.706 165.571 765.476 168.796 762.839 171.054C760.377 173.312 756.774 174.44 752.027 174.44C744.996 174.44 740.513 171.941 738.579 166.941C733.13 171.941 726.977 174.44 720.12 174.44C713.264 174.44 707.727 172.344 703.508 168.151C699.289 163.797 697.179 157.668 697.179 149.766V73.5672C697.179 70.1805 696.477 67.7615 695.07 66.3101C693.84 64.8587 691.378 64.133 687.686 64.133C687.511 60.1013 688.741 56.9566 691.378 54.6988C694.19 52.2798 698.059 51.0703 702.98 51.0703C707.902 51.0703 711.419 52.3605 713.528 54.9407C715.813 57.5209 716.956 61.7947 716.956 67.7615V149.524C716.956 155.169 719.505 157.991 724.603 157.991C727.24 157.991 729.702 157.104 731.987 155.33C734.449 153.395 736.206 151.379 737.261 149.283V73.3253ZM789.88 31.4762C782.321 31.4762 778.541 26.88 778.541 17.6878C778.541 8.49548 782.321 3.89932 789.88 3.89932C797.438 3.89932 801.219 8.49548 801.219 17.6878C801.219 26.88 797.438 31.4762 789.88 31.4762ZM773.531 53.4893H799.9V151.943C799.9 155.33 800.516 157.749 801.746 159.201C803.153 160.652 805.701 161.378 809.393 161.378C809.568 165.571 808.338 168.796 805.701 171.054C803.239 173.312 799.548 174.44 794.626 174.44C789.705 174.44 786.013 173.07 783.551 170.328C781.266 167.586 780.123 163.071 780.123 156.782V68.0034L771.949 69.2129C770.719 65.0199 770.103 61.3914 770.103 58.3273C770.103 55.1019 771.246 53.4893 773.531 53.4893ZM821.282 22.042C821.282 18.3328 820.491 13.4141 818.909 7.28595C824.182 4.70567 829.809 3.41553 835.785 3.41553C839.302 3.41553 841.059 4.62504 841.059 7.04405V151.943C841.059 155.33 841.675 157.749 842.905 159.201C844.312 160.652 846.86 161.378 850.552 161.378C850.727 165.571 849.497 168.796 846.86 171.054C844.398 173.312 840.707 174.44 835.785 174.44C830.863 174.44 827.172 173.07 824.71 170.328C822.425 167.586 821.282 163.071 821.282 156.782V22.042ZM901.247 68.971H890.963C887.974 68.971 885.514 69.8579 883.579 71.6319C881.822 73.2446 880.942 75.4217 880.942 78.1633V149.524C880.942 155.169 883.491 157.991 888.59 157.991C891.227 157.991 893.688 157.104 895.973 155.33C898.435 153.395 900.192 151.379 901.247 149.283V68.971ZM901.247 22.042C901.247 17.204 900.456 12.2853 898.874 7.28595C904.147 4.70567 909.774 3.41553 915.75 3.41553C919.267 3.41553 921.024 4.62504 921.024 7.04405V151.943C921.024 155.33 921.64 157.749 922.87 159.201C924.277 160.652 926.825 161.378 930.517 161.378C930.692 165.571 929.462 168.796 926.825 171.054C924.363 173.312 920.76 174.44 916.014 174.44C908.983 174.44 904.5 171.941 902.565 166.941C897.116 171.941 890.963 174.44 884.107 174.44C877.251 174.44 871.713 172.344 867.494 168.151C863.275 163.797 861.165 157.668 861.165 149.766V79.1309C861.165 71.0674 863.891 64.778 869.34 60.2625C874.789 55.7471 882.172 53.4893 891.49 53.4893H901.247V22.042ZM981.346 76.9538C981.346 73.7284 980.291 71.2288 978.181 69.4548C976.072 67.5196 973.435 66.552 970.271 66.552C963.767 66.552 960.514 69.0517 960.514 74.051V108.643L973.171 99.9345C978.62 96.2253 981.346 88.5651 981.346 76.9538ZM940.737 150.492V74.7767C940.737 58.9723 950.846 51.0703 971.062 51.0703C991.455 51.0703 1001.65 59.94 1001.65 77.6795C1001.65 84.7754 1000.24 91.3067 997.431 97.2736C994.619 103.24 990.75 107.756 985.828 110.82L960.514 126.786V148.799C960.514 155.572 963.942 158.959 970.798 158.959C977.829 158.959 981.346 155.169 981.346 147.589V142.025L980.555 130.656C982.839 130.172 985.126 129.93 987.411 129.93C989.872 129.93 992.157 130.253 994.267 130.898C998.486 131.866 1000.6 133.72 1000.6 136.462V153.879C1000.6 160.329 997.783 165.409 992.157 169.119C986.708 172.666 979.411 174.44 970.271 174.44C950.582 174.44 940.737 166.458 940.737 150.492ZM1038.87 152.185C1038.87 159.926 1039.49 166.377 1040.72 171.538C1035.44 172.505 1029.73 172.989 1023.58 172.989C1020.59 172.989 1019.1 171.779 1019.1 169.36V73.5672C1019.1 70.1805 1018.39 67.7615 1016.99 66.3101C1015.76 64.8587 1013.29 64.133 1009.6 64.133C1009.43 59.9399 1010.57 56.7147 1013.03 54.4569C1015.67 52.1991 1019.36 51.0703 1024.11 51.0703C1031.14 51.0703 1035.53 54.2957 1037.29 60.7464C1041.68 54.2957 1047.93 51.0703 1056.01 51.0703C1070.43 51.0703 1077.63 57.4404 1077.63 70.1805V94.3707C1077.63 97.1124 1075.53 98.9669 1071.31 99.9345C1069.2 100.58 1066.91 100.902 1064.45 100.902C1062.17 100.902 1059.88 100.66 1057.59 100.176C1058.12 96.6286 1058.39 92.8386 1058.39 88.807V76.47C1058.39 71.1481 1055.75 68.4872 1050.47 68.4872C1048.01 68.4872 1045.73 69.5355 1043.62 71.6319C1041.51 73.7284 1039.93 76.0669 1038.87 78.6471V152.185Z" fill="#0891B2"/>
<path d="M388.979 224.536C386.017 224.536 383.056 225.675 380.095 227.952V286.524L380.753 298.415C377.024 298.837 373.349 299.048 369.73 299.048C367.975 299.048 367.098 298.331 367.098 296.897V228.458C367.098 226.603 366.659 225.295 365.781 224.536C364.904 223.693 363.314 223.271 361.01 223.271C360.901 221.079 361.668 219.35 363.314 218.085C364.959 216.82 367.591 216.187 371.211 216.187C374.83 216.187 377.407 217.579 378.943 220.362C383.221 217.579 387.608 216.187 392.105 216.187C398.795 216.187 403.402 217.789 405.924 220.994C410.421 217.789 415.137 216.187 420.073 216.187C430.931 216.187 436.36 220.32 436.36 228.585V287.662C436.36 289.433 436.799 290.698 437.677 291.458C438.664 292.132 440.309 292.47 442.612 292.47C442.612 297.277 439.102 299.68 432.083 299.68C426.27 299.68 423.363 296.771 423.363 290.951V229.344C423.363 226.139 421.225 224.536 416.947 224.536C413.547 224.536 410.695 225.591 408.392 227.699V286.524L409.05 298.415C405.321 298.837 401.647 299.048 398.027 299.048C396.272 299.048 395.395 298.331 395.395 296.897V229.344C395.395 226.139 393.256 224.536 388.979 224.536ZM448.355 286.777V248.572C448.355 244.356 450.055 241.066 453.455 238.705C456.855 236.343 461.462 235.163 467.275 235.163C473.088 235.163 477.585 236.259 480.765 238.452C484.056 240.645 485.701 243.85 485.701 248.066V286.271C485.701 290.488 483.946 293.777 480.436 296.138C477.036 298.5 472.43 299.68 466.617 299.68C460.804 299.68 456.307 298.584 453.126 296.391C449.945 294.199 448.355 290.994 448.355 286.777ZM460.694 248.066V286.777C460.694 288.21 461.297 289.433 462.504 290.445C463.71 291.373 465.191 291.837 466.946 291.837C468.81 291.837 470.346 291.373 471.552 290.445C472.759 289.433 473.362 288.21 473.362 286.777V248.066C473.362 246.633 472.759 245.452 471.552 244.524C470.346 243.512 468.81 243.006 466.946 243.006C465.191 243.006 463.71 243.512 462.504 244.524C461.297 245.452 460.694 246.633 460.694 248.066ZM496.891 219.982C496.891 217.452 496.397 214.88 495.41 212.265C498.7 210.916 502.21 210.241 505.939 210.241C508.133 210.241 509.23 210.874 509.23 212.139V238.452C512.63 236.259 516.359 235.163 520.417 235.163C524.475 235.163 527.766 236.217 530.288 238.325C532.921 240.434 534.237 243.428 534.237 247.307V287.915C534.237 289.686 534.621 290.952 535.388 291.711C536.266 292.47 537.856 292.849 540.159 292.849C540.269 295.042 539.501 296.729 537.856 297.909C536.321 299.09 534.017 299.68 530.946 299.68C527.875 299.68 525.572 298.963 524.037 297.53C522.611 296.096 521.898 293.735 521.898 290.445V248.066C521.898 245.283 520.033 243.892 516.304 243.892C513.233 243.892 510.875 245.199 509.23 247.813V288.042C509.23 292.09 509.614 295.464 510.381 298.162C507.091 298.668 503.526 298.921 499.688 298.921C497.823 298.921 496.891 298.289 496.891 297.024V219.982ZM562.816 275.265C559.196 277.12 557.386 280.241 557.386 284.626C557.386 288.927 559.086 291.078 562.487 291.078C565.996 291.078 568.738 289.56 570.713 286.524V271.217L562.816 275.265ZM564.625 235.163C576.91 235.163 583.052 239.337 583.052 247.687V287.915C583.052 289.686 583.435 290.952 584.203 291.711C585.081 292.47 586.671 292.849 588.974 292.849C589.084 295.042 588.316 296.729 586.671 297.909C585.136 299.09 582.887 299.68 579.926 299.68C575.319 299.68 572.522 298.373 571.535 295.759C568.135 298.373 564.132 299.68 559.525 299.68C554.919 299.68 551.244 298.331 548.502 295.632C545.76 292.933 544.389 289.307 544.389 284.753C544.389 277.837 548.173 272.608 555.741 269.066L570.713 262.235V248.572C570.713 245.03 568.519 243.259 564.132 243.259C559.854 243.259 557.715 245.241 557.715 249.205V253.38L558.209 259.325C556.783 259.578 555.302 259.705 553.767 259.705C552.341 259.705 550.97 259.536 549.654 259.199C547.022 258.693 545.706 257.723 545.706 256.289V245.916C545.706 242.542 547.405 239.928 550.806 238.072C554.315 236.133 558.922 235.163 564.625 235.163ZM609.193 288.042C609.193 292.174 609.577 295.632 610.345 298.415C607.055 298.753 603.49 298.921 599.651 298.921C597.787 298.921 596.854 298.289 596.854 297.024V246.928C596.854 245.157 596.416 243.892 595.538 243.133C594.77 242.374 593.235 241.994 590.932 241.994C590.822 239.801 591.535 238.115 593.071 236.934C594.716 235.753 597.293 235.163 600.803 235.163C604.422 235.163 606.945 236.47 608.371 239.084C611.771 236.47 615.829 235.163 620.545 235.163C625.37 235.163 628.99 236.807 631.404 240.097C635.134 236.807 639.247 235.163 643.743 235.163C648.349 235.163 651.858 236.217 654.272 238.325C656.686 240.434 657.891 243.428 657.891 247.307V287.915C657.891 289.686 658.274 290.952 659.043 291.711C659.92 292.47 661.511 292.849 663.814 292.849C663.925 295.042 663.156 296.729 661.511 297.909C659.976 299.09 657.673 299.68 654.601 299.68C651.529 299.68 649.226 298.963 647.691 297.53C646.264 296.096 645.552 293.735 645.552 290.445V248.066C645.552 245.283 643.853 243.892 640.452 243.892C637.491 243.892 635.188 245.199 633.542 247.813V288.042C633.542 292.174 633.925 295.632 634.694 298.415C631.404 298.753 627.838 298.921 624 298.921C622.137 298.921 621.203 298.289 621.203 297.024V248.066C621.203 245.283 619.504 243.892 616.103 243.892C613.142 243.892 610.839 245.199 609.193 247.813V288.042ZM684.225 288.042C684.225 292.174 684.608 295.632 685.376 298.415C682.086 298.753 678.521 298.921 674.683 298.921C672.816 298.921 671.886 298.289 671.886 297.024V246.928C671.886 245.157 671.446 243.892 670.57 243.133C669.801 242.374 668.266 241.994 665.963 241.994C665.852 239.801 666.565 238.115 668.102 236.934C669.747 235.753 672.323 235.163 675.834 235.163C679.454 235.163 681.975 236.47 683.402 239.084C686.8 236.47 690.86 235.163 695.577 235.163C700.402 235.163 704.021 236.807 706.435 240.097C710.162 236.807 714.275 235.163 718.774 235.163C723.38 235.163 726.889 236.217 729.303 238.325C731.714 240.434 732.923 243.428 732.923 247.307V287.915C732.923 289.686 733.306 290.952 734.074 291.711C734.951 292.47 736.542 292.849 738.845 292.849C738.953 295.042 738.187 296.729 736.542 297.909C735.005 299.09 732.701 299.68 729.632 299.68C726.56 299.68 724.257 298.963 722.722 297.53C721.296 296.096 720.584 293.735 720.584 290.445V248.066C720.584 245.283 718.882 243.892 715.483 243.892C712.522 243.892 710.219 245.199 708.574 247.813V288.042C708.574 292.174 708.957 295.632 709.725 298.415C706.435 298.753 702.869 298.921 699.031 298.921C697.165 298.921 696.235 298.289 696.235 297.024V248.066C696.235 245.283 694.533 243.892 691.135 243.892C688.173 243.892 685.87 245.199 684.225 247.813V288.042ZM770.276 248.699C770.276 247.012 769.618 245.705 768.302 244.777C766.986 243.765 765.341 243.259 763.366 243.259C759.307 243.259 757.279 244.566 757.279 247.181V265.271L765.176 260.717C768.577 258.777 770.276 254.771 770.276 248.699ZM744.94 287.156V247.56C744.94 239.295 751.246 235.163 763.86 235.163C776.582 235.163 782.944 239.801 782.944 249.078C782.944 252.789 782.068 256.205 780.312 259.325C778.556 262.446 776.145 264.807 773.073 266.41L757.279 274.759V286.271C757.279 289.813 759.418 291.584 763.695 291.584C768.083 291.584 770.276 289.602 770.276 285.638V282.729L769.783 276.783C771.209 276.53 772.634 276.403 774.06 276.403C775.595 276.403 777.022 276.572 778.338 276.909C780.97 277.415 782.286 278.385 782.286 279.819V288.927C782.286 292.301 780.53 294.958 777.022 296.897C773.621 298.753 769.071 299.68 763.366 299.68C751.081 299.68 744.94 295.506 744.94 287.156ZM816.861 244.524H810.445C808.581 244.524 807.044 244.988 805.838 245.916C804.741 246.759 804.193 247.898 804.193 249.331V286.65C804.193 289.602 805.784 291.078 808.964 291.078C810.609 291.078 812.144 290.614 813.571 289.686C815.105 288.674 816.203 287.62 816.861 286.524V244.524ZM816.861 219.982C816.861 217.452 816.367 214.88 815.38 212.265C818.671 210.916 822.18 210.241 825.91 210.241C828.102 210.241 829.2 210.874 829.2 212.139V287.915C829.2 289.686 829.583 290.952 830.352 291.711C831.228 292.47 832.819 292.849 835.123 292.849C835.233 295.042 834.465 296.729 832.819 297.909C831.285 299.09 829.035 299.68 826.074 299.68C821.686 299.68 818.889 298.373 817.684 295.759C814.283 298.373 810.445 299.68 806.167 299.68C801.89 299.68 798.435 298.584 795.803 296.391C793.17 294.114 791.854 290.909 791.854 286.777V249.837C791.854 245.621 793.553 242.331 796.954 239.97C800.355 237.609 804.962 236.428 810.774 236.428H816.861V219.982ZM861.096 245.41V228.332C861.096 224.115 862.96 220.826 866.69 218.464C870.42 216.103 875.409 214.922 881.661 214.922C888.023 214.922 893.067 216.018 896.797 218.211C900.527 220.32 902.391 223.103 902.391 226.56V242.247C902.391 243.765 900.964 244.819 898.113 245.41C896.579 245.747 895.041 245.916 893.507 245.916C891.972 245.916 890.435 245.789 888.9 245.536C889.229 243.512 889.394 241.362 889.394 239.084V228.332C889.394 226.729 888.682 225.506 887.255 224.663C885.828 223.735 883.964 223.271 881.661 223.271C879.358 223.271 877.494 223.735 876.068 224.663C874.751 225.506 874.093 226.729 874.093 228.332V243.133C874.093 246.084 875.355 248.151 877.877 249.331L895.316 257.934C900.252 260.295 902.72 263.922 902.72 268.813V286.271C902.72 290.488 900.8 293.777 896.962 296.138C893.124 298.5 888.023 299.68 881.661 299.68C875.409 299.68 870.363 298.626 866.525 296.518C862.687 294.325 860.767 291.5 860.767 288.042V272.355C860.767 270.837 862.194 269.783 865.045 269.193C866.579 268.855 868.117 268.687 869.651 268.687C871.186 268.687 872.723 268.813 874.258 269.066C873.929 271.09 873.764 273.241 873.764 275.518V286.271C873.764 287.789 874.533 289.012 876.068 289.939C877.602 290.867 879.522 291.331 881.826 291.331C884.129 291.331 885.993 290.867 887.419 289.939C888.954 289.012 889.723 287.789 889.723 286.271V271.976C889.723 268.687 888.242 266.325 885.281 264.891L867.842 256.163C863.346 253.97 861.096 250.386 861.096 245.41ZM929.611 275.265C925.992 277.12 924.182 280.241 924.182 284.626C924.182 288.927 925.881 291.078 929.282 291.078C932.791 291.078 935.534 289.56 937.508 286.524V271.217L929.611 275.265ZM931.421 235.163C943.706 235.163 949.847 239.337 949.847 247.687V287.915C949.847 289.686 950.23 290.952 950.999 291.711C951.875 292.47 953.466 292.849 955.77 292.849C955.88 295.042 955.112 296.729 953.466 297.909C951.932 299.09 949.682 299.68 946.721 299.68C942.114 299.68 939.318 298.373 938.331 295.759C934.93 298.373 930.927 299.68 926.321 299.68C921.714 299.68 918.041 298.331 915.298 295.632C912.555 292.933 911.185 289.307 911.185 284.753C911.185 277.837 914.969 272.608 922.537 269.066L937.508 262.235V248.572C937.508 245.03 935.315 243.259 930.927 243.259C926.65 243.259 924.511 245.241 924.511 249.205V253.38L925.004 259.325C923.578 259.578 922.097 259.705 920.562 259.705C919.136 259.705 917.766 259.536 916.449 259.199C913.817 258.693 912.501 257.723 912.501 256.289V245.916C912.501 242.542 914.2 239.928 917.601 238.072C921.11 236.133 925.717 235.163 931.421 235.163ZM962.5 219.982C962.5 218.042 962.006 215.47 961.019 212.265C964.309 210.916 967.818 210.241 971.548 210.241C973.741 210.241 974.839 210.874 974.839 212.139V287.915C974.839 289.686 975.222 290.952 975.99 291.711C976.867 292.47 978.458 292.849 980.761 292.849C980.869 295.042 980.103 296.729 978.458 297.909C976.921 299.09 974.617 299.68 971.548 299.68C968.476 299.68 966.173 298.963 964.638 297.53C963.212 296.096 962.5 293.735 962.5 290.445V219.982ZM1004 275.265C1000.38 277.12 998.57 280.241 998.57 284.626C998.57 288.927 1000.27 291.078 1003.67 291.078C1007.18 291.078 1009.92 289.56 1011.9 286.524V271.217L1004 275.265ZM1005.81 235.163C1018.09 235.163 1024.24 239.337 1024.24 247.687V287.915C1024.24 289.686 1024.62 290.952 1025.39 291.711C1026.26 292.47 1027.85 292.849 1030.16 292.849C1030.27 295.042 1029.5 296.729 1027.85 297.909C1026.32 299.09 1024.07 299.68 1021.11 299.68C1016.5 299.68 1013.71 298.373 1012.72 295.759C1009.32 298.373 1005.32 299.68 1000.71 299.68C996.103 299.68 992.427 298.331 989.686 295.632C986.944 292.933 985.573 289.307 985.573 284.753C985.573 277.837 989.357 272.608 996.925 269.066L1011.9 262.235V248.572C1011.9 245.03 1009.7 243.259 1005.32 243.259C1001.04 243.259 998.9 245.241 998.9 249.205V253.38L999.393 259.325C997.966 259.578 996.486 259.705 994.951 259.705C993.524 259.705 992.154 259.536 990.838 259.199C988.206 258.693 986.89 257.723 986.89 256.289V245.916C986.89 242.542 988.589 239.928 991.99 238.072C995.499 236.133 1000.11 235.163 1005.81 235.163ZM1036.72 219.982C1036.72 217.452 1036.23 214.88 1035.24 212.265C1038.53 210.916 1042.04 210.241 1045.77 210.241C1047.96 210.241 1049.06 210.874 1049.06 212.139V238.452C1052.46 236.259 1056.19 235.163 1060.25 235.163C1064.31 235.163 1067.6 236.217 1070.12 238.325C1072.75 240.434 1074.07 243.428 1074.07 247.307V287.915C1074.07 289.686 1074.45 290.952 1075.22 291.711C1076.1 292.47 1077.69 292.849 1079.99 292.849C1080.1 295.042 1079.33 296.729 1077.69 297.909C1076.15 299.09 1073.85 299.68 1070.78 299.68C1067.7 299.68 1065.4 298.963 1063.87 297.53C1062.44 296.096 1061.73 293.735 1061.73 290.445V248.066C1061.73 245.283 1059.86 243.892 1056.13 243.892C1053.06 243.892 1050.71 245.199 1049.06 247.813V288.042C1049.06 292.09 1049.44 295.464 1050.21 298.162C1046.92 298.668 1043.36 298.921 1039.52 298.921C1037.65 298.921 1036.72 298.289 1036.72 297.024V219.982Z" fill="#F59E0B"/>
</svg>
