<svg width="1080" height="301" viewBox="0 0 1080 301" fill="none" xmlns="http://www.w3.org/2000/svg">
<path d="M95.1503 149.834L96.8537 153.741L98.3138 156.728L100.504 162.473L101.721 166.15L103.424 172.355L104.884 177.87L106.101 182.237L107.561 185.914L109.508 189.59L111.941 192.578L114.132 194.876L116.078 196.485L119.729 198.783L123.866 200.391L128.003 201.54L131.166 202H133.356H135.79L140.17 201.54L144.064 201.081L149.174 199.932L155.258 198.093L160.125 196.485L164.505 194.416L168.886 192.118L173.266 189.361L176.916 186.373L178.863 184.075L180.566 181.317L181.783 178.56L182.757 175.802L183 172.815V170.287V166.61L182.27 162.014L181.053 157.647L179.593 153.97L178.133 150.064L176.673 146.157L174.969 142.48L173.509 139.263L170.832 135.586L167.182 132.369L163.532 130.53L159.638 128.692L156.231 127.543L148.201 127.083L141.387 127.543L135.06 128.232L128.003 129.381L122.892 130.53L116.809 131.679L111.941 132.598L108.291 133.058H103.668L98.3138 132.139L93.2035 130.53L89.5532 128.922L85.1729 125.934L81.5226 122.717L77.8723 118.121L74.7088 113.295L72.2753 108.009L70.0851 102.494L67.8949 95.8294L66.9215 91.0034L65.9481 85.9477L65.7048 81.8111V79.0535V76.7554L65.9481 74.6871L66.4348 72.6189L66.9215 71.0102L67.4082 69.6314L67.8949 68.4824L68.625 67.1035L69.3551 65.9545L70.3285 64.5756L71.5452 63.4266L73.2487 61.818L74.7088 60.6689L76.6556 59.2901L80.5492 57.6815L84.1995 56.3026L87.6064 55.3834L92.7167 54.2344L96.1237 53.5449L99.5306 52.8555L103.911 51.9363L108.048 51.2469L111.698 50.3276L114.862 49.6382L117.539 48.9488L119.972 48.2594L121.919 47.3402L124.109 46.1911L125.813 44.8123L127.516 42.9738L129.463 40.2162L130.923 37.2287L131.896 33.7816L132.383 29.6451V26.6576L131.896 23.6701L130.923 19.5336L129.463 15.6268L127.759 12.6394L125.569 9.19226L123.136 6.43458L119.972 3.90671L117.052 2.29807L113.402 0.68942L109.995 0L105.371 0L100.261 0L96.1237 0L91.7433 0L88.3364 0.229807L85.1729 0.68942L82.0093 1.14903L79.3324 1.60865L76.4122 2.29807L73.492 3.21729L70.8152 4.36633L68.625 5.74516L66.4348 7.35381L64.7314 10.1115L63.758 12.8692V16.5461L64.2447 19.9932L65.4614 24.5893L67.1649 29.4152L68.625 33.5518L69.8418 37.2287L70.5718 40.446L70.8152 43.2036V48.2594L69.8418 52.6257L67.8949 56.3026L64.9747 59.2901L61.5678 61.818L57.1875 64.116L51.3471 66.6439C49.8058 67.0269 46.6747 67.7929 46.4801 67.7929C46.2854 67.7929 42.8298 68.559 41.1263 68.942L36.5027 69.6314L31.3923 69.8612L27.012 70.3208L21.1715 71.0102L16.3045 72.3891L11.4375 74.6871L8.76064 76.2958L6.32713 78.364L3.40691 82.041L1.46011 86.1775L0.243351 91.2332L0 94.6803L0 99.0466L0.243351 102.264L0.730053 105.481L1.70346 109.848L3.40691 114.673L5.84043 120.878L8.27394 125.934L10.7074 129.381L13.6277 132.139L16.3045 133.977L19.4681 135.586L22.875 136.505L26.7686 136.965H30.4189L35.7726 136.505L39.6662 136.046L43.0731 135.586L46.7234 134.667L50.8604 133.747L54.9973 133.058L60.1077 132.598H65.4614H70.0851L74.4654 133.288L78.6024 134.437L82.496 136.046L86.3896 138.803L89.5532 141.791L92.23 145.008L95.1503 149.834Z" fill="#F59E0B"/>
<path d="M138.404 223.966L140.145 222.928L143.626 220.852L146.362 219.295L150.092 217.479L165.262 210.991L174.463 207.099L177.696 205.023L181.178 202.428L184.659 199.054L187.395 195.681L189.136 193.086L190.876 189.453L192.368 185.82L193.363 182.965L194.109 179.332L194.358 175.699V172.066V167.914L194.109 164.8L193.612 162.205L192.866 158.832L191.374 154.42L189.384 149.23L186.4 143.002L184.162 139.369L181.426 135.477L178.193 131.584L175.707 129.249L171.728 125.616L167.749 122.761L163.77 120.426L160.288 119.128L157.801 118.35L155.563 117.831L152.828 117.312L150.838 117.052L147.108 116.793H143.875H141.139L137.658 117.052L135.171 117.312L133.182 117.571L131.192 117.831L129.451 118.09L126.964 118.609L124.478 119.128L122.239 119.647L119.753 120.166L117.514 120.426L114.033 120.945L110.551 121.464L106.821 121.983H104.334H101.847L98.3658 121.464L95.3816 120.426L92.8947 119.128L90.1592 117.312L86.6776 113.938L83.6934 110.305L81.4553 106.672L79.4658 102.52L77.2276 97.0706L75.4868 91.8806L74.2434 87.4691L73.4974 84.6146L73 82.0195V79.4245L73.7461 75.7915L75.2382 73.1965L77.4763 70.342L79.4658 68.785L81.4553 67.4875L84.9368 66.19L88.1697 65.152L95.1329 63.3355L100.355 62.2975L105.826 61.519L111.795 61H117.017H120.747L124.975 61.519L129.203 63.076L132.436 64.8925L135.171 67.4875L137.658 70.6015L139.399 73.1965L142.134 78.3865L144.87 83.836L147.108 89.8046L150.838 97.3301L154.568 102.52L158.796 106.932L163.024 109.786L166.505 111.603L169.987 112.9L175.707 114.198L180.929 114.717L187.892 114.976L191.871 114.717L197.342 114.198L204.305 112.9L211.766 111.603L216.491 110.565L220.718 109.527L225.692 108.489L228.925 108.229H232.407L234.645 108.489L238.126 109.527L240.862 110.824L244.095 112.9L247.328 115.495L251.058 120.166L254.291 126.135L257.275 132.622L259.762 139.11L261.005 144.04L261.503 147.933L262 153.382L261.503 158.053L259.264 163.243L257.026 166.098L254.539 168.433L252.301 169.99L249.566 171.288L246.582 172.326L243.1 173.104L239.121 174.142L236.634 174.921L231.661 176.478L226.687 178.294L221.464 180.63L216.739 183.225L213.009 186.079L209.776 188.934L207.041 192.048L204.554 195.681L203.062 199.054L202.067 202.947L201.57 205.801V210.732L202.067 215.922L203.062 221.371L204.554 226.302L207.289 234.087L210.274 242.391L213.258 250.435L215.496 257.961L216.491 262.113L216.988 265.746V269.119V272.493L215.993 276.904L213.507 282.094L210.025 285.987L206.792 288.841L203.311 290.917L197.839 293.772L194.109 295.329L187.643 297.924L180.68 299.481L177.696 299.741L173.966 300H170.236L166.257 299.741L163.521 299.221L159.791 297.665L156.061 295.589L152.435 293.253L147.357 288.582L142.88 282.873L137.907 275.088L134.922 268.6L130.943 260.037L128.954 254.328L127.711 249.657L127.462 247.84L127.213 245.764V243.948V242.131V240.574L127.462 238.498L128.208 236.422L129.203 233.827L130.943 230.973L132.684 228.897L134.176 227.34L138.404 223.966Z" fill="#0891B2"/>
<path d="M256.455 264H260.665L264.876 263.22L269.333 262.179L274.782 260.099L279.735 258.018L284.936 255.417L289.394 252.816L292.861 249.695L295.585 246.053L297.071 241.892L297.814 238.511V235.39L297.566 232.789L296.823 228.627L294.594 222.125L289.394 210.16L284.193 198.976L281.964 192.734L280.726 189.093L279.983 186.232L279.735 183.631V181.03V177.909V175.308L280.478 172.707C280.808 171.84 281.469 170.054 281.469 169.846C281.469 169.638 282.624 167.852 283.202 166.985L285.431 164.124L288.651 161.262L291.87 158.922L295.337 156.841L299.3 155.02L303.51 153.46L307.473 151.899L309.949 151.119L312.921 150.338L315.645 149.818L318.617 149.038L321.094 148.258L323.323 146.957L325.552 145.657L327.285 143.836L328.771 141.755L329.762 139.675L330.505 137.334L331 134.733V131.612L330.752 128.751L330.505 126.67L330.009 124.589L329.266 121.728L328.276 118.607L327.285 115.746L325.552 112.365L323.818 109.243L321.589 105.602L319.112 102.221L316.388 98.8397L314.655 97.019L312.673 95.4584L310.692 93.8979L308.463 92.3373L306.482 91.0368L304.501 89.9964L301.281 89.4762H298.557H296.328L294.347 89.7363L290.632 90.5166L286.174 91.557L281.221 92.5974L274.534 93.3777L270.572 93.8979L265.123 94.4181H260.913H255.96L251.997 93.8979L247.044 93.1176L242.834 91.8171L238.376 90.2565L235.652 88.696L231.937 86.3551L229.708 84.5344L227.479 82.7138L224.755 80.3729L222.774 78.0321L220.297 75.171L218.564 72.5701L216.83 70.2292L215.592 67.3682L213.858 63.9869L211.877 59.8254L208.905 55.4038L206.676 53.0629L204.199 50.462L201.228 48.3812L198.256 46.8207L194.293 45.7803L190.331 45H186.616H182.158H178.691L175.224 45.2601L171.756 45.7803L168.784 46.3005L166.06 46.8207L162.841 47.601L159.869 48.3812L156.897 49.4216L154.668 50.2019L152.687 51.2423L150.705 52.5428L148.724 54.3634L147.486 56.1841L146.248 59.3052L146 62.9466L146.248 65.8076L146.743 68.4086L147.981 72.5701L148.972 75.9513L150.21 79.0724L151.944 82.9739L154.42 87.3955L156.897 91.2969L160.116 94.6781L163.831 97.5392L166.803 99.3599L171.013 100.92L174.976 101.701L180.92 102.221H185.378L189.588 101.701L193.55 101.181C195.284 100.92 198.801 100.4 198.999 100.4C199.197 100.4 201.558 100.053 202.714 99.88L206.181 99.3599L209.4 98.8397L213.115 98.5796H216.83H220.297H224.755L228.222 98.8397L231.937 99.3599L233.918 99.62L235.9 99.88L238.129 100.4L240.11 101.181L242.339 102.221L246.549 104.302L251.502 108.463C252.575 109.59 254.821 111.896 255.217 112.105C255.613 112.313 258.189 116.006 259.427 117.827L262.647 122.508L266.361 130.311L268.59 136.293L270.076 143.056L271.067 148.518V153.98L270.819 158.401L269.581 164.124L267.6 168.805L265.618 171.926L263.637 174.267L261.408 176.348L258.932 177.909L256.703 179.209L253.236 180.509L249.025 181.55L245.311 182.85L241.1 184.411L236.395 185.972L231.194 188.312L227.727 190.133L224.012 192.474L220.05 195.335L216.83 198.716L214.601 202.097L213.115 205.479L212.372 208.6L212.125 212.761L212.372 216.143L212.62 218.483L213.61 222.385L215.592 228.367L218.316 234.349L220.793 239.551L223.517 244.233L226.241 248.394L229.213 252.036L232.68 255.417L237.138 258.538L242.091 261.399L248.035 263.22L252.245 264H256.455Z" fill="#0891B2"/>
<path d="M360 166.036V34.6616C360 26.5819 363.013 20.2798 369.038 15.7553C375.064 11.2307 383.304 8.96839 393.76 8.96839C404.216 8.96839 412.279 11.0691 417.951 15.2705C423.799 19.472 426.723 25.6124 426.723 33.692V148.342C426.723 151.735 427.432 154.159 428.85 155.614C430.444 156.906 433.103 157.553 436.824 157.553C436.824 166.763 431.153 171.369 419.811 171.369C410.419 171.369 405.722 165.794 405.722 154.644V108.348H381V146.16L382.064 168.945C376.038 169.753 370.101 170.157 364.253 170.157C361.418 170.157 360 168.783 360 166.036ZM381 34.6616V92.3501H405.722V34.6616C405.722 31.5914 404.57 29.2482 402.267 27.6323C399.963 25.8547 396.95 24.966 393.229 24.966C389.507 24.966 386.494 25.8547 384.19 27.6323C382.064 29.2482 381 31.5914 381 34.6616ZM469.029 153.432H479.396C482.409 153.432 484.802 152.624 486.574 151.008C488.523 149.231 489.498 146.968 489.498 144.221V72.7166C489.498 67.0608 486.928 64.233 481.789 64.233C479.131 64.233 476.561 65.2026 474.08 67.1417C471.776 68.9193 470.092 70.8584 469.029 72.959V153.432ZM469.029 168.945V188.336L470.89 204.334C466.105 206.112 460.611 207 454.408 207C450.864 207 449.092 205.788 449.092 203.364V70.2927C449.092 66.8993 448.383 64.4754 446.965 63.0211C445.725 61.5667 443.244 60.8396 439.522 60.8396C439.345 56.6381 440.497 53.4064 442.978 51.144C445.636 48.8817 449.801 47.7506 455.472 47.7506C461.32 47.7506 465.396 50.2553 467.7 55.2646C473.194 50.2553 479.396 47.7506 486.308 47.7506C493.219 47.7506 498.802 49.9321 503.055 54.2951C507.308 58.4966 509.435 64.5563 509.435 72.4742V143.252C509.435 151.331 506.688 157.634 501.194 162.158C495.701 166.683 488.257 168.945 478.865 168.945H469.029ZM549.504 153.432H559.872C562.884 153.432 565.277 152.624 567.049 151.008C568.999 149.231 569.973 146.968 569.973 144.221V72.7166C569.973 67.0608 567.404 64.233 562.264 64.233C559.606 64.233 557.036 65.2026 554.555 67.1417C552.251 68.9193 550.568 70.8584 549.504 72.959V153.432ZM549.504 168.945V188.336L551.365 204.334C546.58 206.112 541.087 207 534.884 207C531.339 207 529.567 205.788 529.567 203.364V70.2927C529.567 66.8993 528.858 64.4754 527.441 63.0211C526.2 61.5667 523.719 60.8396 519.997 60.8396C519.82 56.6381 520.972 53.4064 523.453 51.144C526.112 48.8817 530.276 47.7506 535.947 47.7506C541.795 47.7506 545.871 50.2553 548.175 55.2646C553.669 50.2553 559.872 47.7506 566.783 47.7506C573.695 47.7506 579.277 49.9321 583.53 54.2951C587.784 58.4966 589.91 64.5563 589.91 72.4742V143.252C589.91 151.331 587.163 157.634 581.67 162.158C576.177 166.683 568.733 168.945 559.34 168.945H549.504ZM609.777 168.945V34.904C609.777 31.349 609.069 28.8443 607.65 27.3899C606.232 25.7741 603.663 24.966 599.941 24.966C599.765 20.7646 601.004 17.452 603.663 15.0281C606.321 12.6042 610.574 11.3923 616.423 11.3923C622.447 11.3923 626.613 14.0586 628.916 19.3911C635.828 14.0586 642.916 11.3923 650.183 11.3923C667.727 11.3923 676.5 19.3102 676.5 35.1464V77.5644C676.5 84.9976 673.931 90.6534 668.791 94.5316C674.815 98.2483 677.829 104.389 677.829 112.953V143.252C677.829 151.331 674.728 157.634 668.525 162.158C662.5 166.683 654.259 168.945 643.803 168.945H609.777ZM645.132 27.3899C640.347 27.3899 635.562 29.5714 630.777 33.9344V87.26H643.803C647.348 87.26 650.183 86.3713 652.309 84.5937C654.436 82.8161 655.499 80.4731 655.499 77.5644V36.6007C655.499 30.4601 652.044 27.3899 645.132 27.3899ZM630.777 103.258V152.947H644.334C648.056 152.947 651.069 152.139 653.373 150.523C655.676 148.746 656.828 146.322 656.828 143.252V112.953C656.828 109.883 655.676 107.54 653.373 105.924C651.069 104.146 648.056 103.258 644.334 103.258H630.777ZM736.87 70.0504C736.87 63.9098 736.249 57.2846 735.009 50.1745C740.325 49.5282 746.084 49.2049 752.288 49.2049C755.301 49.2049 756.807 50.4169 756.807 52.8408V148.827C756.807 152.22 757.428 154.644 758.668 156.098C760.086 157.553 762.655 158.28 766.377 158.28C766.553 162.481 765.313 165.713 762.655 167.975C760.173 170.238 756.541 171.369 751.756 171.369C744.668 171.369 740.149 168.864 738.199 163.855C732.706 168.864 726.502 171.369 719.591 171.369C712.679 171.369 707.097 169.268 702.844 165.067C698.59 160.704 696.464 154.563 696.464 146.645V70.2927C696.464 66.8993 695.756 64.4754 694.337 63.0211C693.097 61.5667 690.616 60.8396 686.894 60.8396C686.717 56.7998 687.957 53.6488 690.616 51.3864C693.45 48.9625 697.351 47.7506 702.312 47.7506C707.273 47.7506 710.819 49.0434 712.945 51.6288C715.248 54.2142 716.401 58.4966 716.401 64.4754V146.403C716.401 152.059 718.97 154.886 724.11 154.886C726.768 154.886 729.25 153.998 731.553 152.22C734.035 150.281 735.806 148.261 736.87 146.16V70.0504ZM789.915 28.1171C782.295 28.1171 778.484 23.5117 778.484 14.3009C778.484 5.09017 782.295 0.484764 789.915 0.484764C797.535 0.484764 801.346 5.09017 801.346 14.3009C801.346 23.5117 797.535 28.1171 789.915 28.1171ZM773.434 50.1745H800.016V148.827C800.016 152.22 800.637 154.644 801.877 156.098C803.296 157.553 805.865 158.28 809.586 158.28C809.763 162.481 808.523 165.713 805.865 167.975C803.383 170.238 799.661 171.369 794.7 171.369C789.738 171.369 786.017 169.995 783.535 167.248C781.232 164.501 780.079 159.977 780.079 153.674V64.7178L771.839 65.9297C770.599 61.7283 769.978 58.0924 769.978 55.0222C769.978 51.7903 771.13 50.1745 773.434 50.1745ZM821.571 18.6639C821.571 14.9473 820.774 10.0187 819.179 3.87821C824.495 1.29273 830.167 0 836.192 0C839.737 0 841.508 1.21195 841.508 3.63582V148.827C841.508 152.22 842.129 154.644 843.369 156.098C844.788 157.553 847.357 158.28 851.078 158.28C851.255 162.481 850.015 165.713 847.357 167.975C844.875 170.238 841.153 171.369 836.192 171.369C831.23 171.369 827.509 169.995 825.027 167.248C822.724 164.501 821.571 159.977 821.571 153.674V18.6639ZM902.184 65.6874H891.816C888.803 65.6874 886.323 66.5761 884.373 68.3536C882.602 69.9695 881.715 72.151 881.715 74.8981V146.403C881.715 152.059 884.284 154.886 889.424 154.886C892.082 154.886 894.564 153.998 896.867 152.22C899.349 150.281 901.12 148.261 902.184 146.16V65.6874ZM902.184 18.6639C902.184 13.8162 901.386 8.88759 899.791 3.87821C905.108 1.29273 910.78 0 916.804 0C920.349 0 922.121 1.21195 922.121 3.63582V148.827C922.121 152.22 922.742 154.644 923.982 156.098C925.4 157.553 927.969 158.28 931.691 158.28C931.867 162.481 930.627 165.713 927.969 167.975C925.487 170.238 921.855 171.369 917.07 171.369C909.982 171.369 905.463 168.864 903.513 163.855C898.02 168.864 891.816 171.369 884.905 171.369C877.993 171.369 872.411 169.268 868.158 165.067C863.904 160.704 861.778 154.563 861.778 146.645V75.8677C861.778 67.788 864.525 61.4859 870.018 56.9614C875.512 52.4368 882.955 50.1745 892.348 50.1745H902.184V18.6639ZM982.931 73.6862C982.931 70.4543 981.868 67.9497 979.741 66.1721C977.615 64.233 974.956 63.2635 971.766 63.2635C965.21 63.2635 961.931 65.7682 961.931 70.7775V105.439L974.69 96.7131C980.184 92.9964 982.931 85.3208 982.931 73.6862ZM941.994 147.372V71.5047C941.994 55.6686 952.184 47.7506 972.564 47.7506C993.122 47.7506 1003.4 56.6381 1003.4 74.4134C1003.4 81.5235 1001.98 88.068 999.147 94.0468C996.312 100.026 992.412 104.55 987.45 107.621L961.931 123.618V145.676C961.931 152.463 965.386 155.856 972.298 155.856C979.386 155.856 982.931 152.059 982.931 144.464V138.889L982.134 127.496C984.437 127.012 986.742 126.769 989.045 126.769C991.527 126.769 993.83 127.093 995.957 127.739C1000.21 128.708 1002.34 130.567 1002.34 133.314V150.766C1002.34 157.229 999.502 162.32 993.83 166.036C988.337 169.591 980.981 171.369 971.766 171.369C951.919 171.369 941.994 163.37 941.994 147.372ZM1040.92 149.069C1040.92 156.826 1041.54 163.289 1042.78 168.46C1037.47 169.43 1031.71 169.915 1025.51 169.915C1022.49 169.915 1020.99 168.703 1020.99 166.279V70.2927C1020.99 66.8993 1020.28 64.4754 1018.86 63.0211C1017.62 61.5667 1015.14 60.8396 1011.42 60.8396C1011.24 56.6381 1012.39 53.4064 1014.87 51.144C1017.53 48.8817 1021.25 47.7506 1026.04 47.7506C1033.12 47.7506 1037.56 50.9825 1039.33 57.4461C1043.76 50.9825 1050.05 47.7506 1058.2 47.7506C1072.73 47.7506 1080 54.1336 1080 66.8993V91.1382C1080 93.8853 1077.87 95.7436 1073.62 96.7131C1071.49 97.3594 1069.19 97.6827 1066.71 97.6827C1064.41 97.6827 1062.1 97.4403 1059.8 96.9555C1060.33 93.4005 1060.59 89.603 1060.59 85.5632V73.2014C1060.59 67.8688 1057.94 65.2026 1052.62 65.2026C1050.14 65.2026 1047.83 66.253 1045.71 68.3536C1043.58 70.4543 1041.99 72.7975 1040.92 75.3829V149.069Z" fill="#0891B2"/>
<path d="M387.979 225.536C385.017 225.536 382.056 226.675 379.095 228.952V287.524L379.753 299.415C376.024 299.837 372.349 300.048 368.73 300.048C366.975 300.048 366.098 299.331 366.098 297.897V229.458C366.098 227.603 365.659 226.295 364.781 225.536C363.904 224.693 362.314 224.271 360.01 224.271C359.901 222.079 360.668 220.35 362.314 219.085C363.959 217.82 366.591 217.187 370.211 217.187C373.83 217.187 376.407 218.579 377.943 221.362C382.221 218.579 386.608 217.187 391.105 217.187C397.795 217.187 402.402 218.789 404.924 221.994C409.421 218.789 414.137 217.187 419.073 217.187C429.931 217.187 435.36 221.32 435.36 229.585V288.662C435.36 290.433 435.799 291.698 436.677 292.458C437.664 293.132 439.309 293.47 441.612 293.47C441.612 298.277 438.102 300.68 431.083 300.68C425.27 300.68 422.363 297.771 422.363 291.951V230.344C422.363 227.139 420.225 225.536 415.947 225.536C412.547 225.536 409.695 226.591 407.392 228.699V287.524L408.05 299.415C404.321 299.837 400.647 300.048 397.027 300.048C395.272 300.048 394.395 299.331 394.395 297.897V230.344C394.395 227.139 392.256 225.536 387.979 225.536ZM447.355 287.777V249.572C447.355 245.356 449.055 242.066 452.455 239.705C455.855 237.343 460.462 236.163 466.275 236.163C472.088 236.163 476.585 237.259 479.765 239.452C483.056 241.645 484.701 244.85 484.701 249.066V287.271C484.701 291.488 482.946 294.777 479.436 297.138C476.036 299.5 471.43 300.68 465.617 300.68C459.804 300.68 455.307 299.584 452.126 297.391C448.945 295.199 447.355 291.994 447.355 287.777ZM459.694 249.066V287.777C459.694 289.21 460.297 290.433 461.504 291.445C462.71 292.373 464.191 292.837 465.946 292.837C467.81 292.837 469.346 292.373 470.552 291.445C471.759 290.433 472.362 289.21 472.362 287.777V249.066C472.362 247.633 471.759 246.452 470.552 245.524C469.346 244.512 467.81 244.006 465.946 244.006C464.191 244.006 462.71 244.512 461.504 245.524C460.297 246.452 459.694 247.633 459.694 249.066ZM495.891 220.982C495.891 218.452 495.397 215.88 494.41 213.265C497.7 211.916 501.21 211.241 504.939 211.241C507.133 211.241 508.23 211.874 508.23 213.139V239.452C511.63 237.259 515.359 236.163 519.417 236.163C523.475 236.163 526.766 237.217 529.288 239.325C531.921 241.434 533.237 244.428 533.237 248.307V288.915C533.237 290.686 533.621 291.952 534.388 292.711C535.266 293.47 536.856 293.849 539.159 293.849C539.269 296.042 538.501 297.729 536.856 298.909C535.321 300.09 533.017 300.68 529.946 300.68C526.875 300.68 524.572 299.963 523.037 298.53C521.611 297.096 520.898 294.735 520.898 291.445V249.066C520.898 246.283 519.033 244.892 515.304 244.892C512.233 244.892 509.875 246.199 508.23 248.813V289.042C508.23 293.09 508.614 296.464 509.381 299.162C506.091 299.668 502.526 299.921 498.688 299.921C496.823 299.921 495.891 299.289 495.891 298.024V220.982ZM561.816 276.265C558.196 278.12 556.386 281.241 556.386 285.626C556.386 289.927 558.086 292.078 561.487 292.078C564.996 292.078 567.738 290.56 569.713 287.524V272.217L561.816 276.265ZM563.625 236.163C575.91 236.163 582.052 240.337 582.052 248.687V288.915C582.052 290.686 582.435 291.952 583.203 292.711C584.081 293.47 585.671 293.849 587.974 293.849C588.084 296.042 587.316 297.729 585.671 298.909C584.136 300.09 581.887 300.68 578.926 300.68C574.319 300.68 571.522 299.373 570.535 296.759C567.135 299.373 563.132 300.68 558.525 300.68C553.919 300.68 550.244 299.331 547.502 296.632C544.76 293.933 543.389 290.307 543.389 285.753C543.389 278.837 547.173 273.608 554.741 270.066L569.713 263.235V249.572C569.713 246.03 567.519 244.259 563.132 244.259C558.854 244.259 556.715 246.241 556.715 250.205V254.38L557.209 260.325C555.783 260.578 554.302 260.705 552.767 260.705C551.341 260.705 549.97 260.536 548.654 260.199C546.022 259.693 544.706 258.723 544.706 257.289V246.916C544.706 243.542 546.405 240.928 549.806 239.072C553.315 237.133 557.922 236.163 563.625 236.163ZM608.193 289.042C608.193 293.174 608.577 296.632 609.345 299.415C606.055 299.753 602.49 299.921 598.651 299.921C596.787 299.921 595.854 299.289 595.854 298.024V247.928C595.854 246.157 595.416 244.892 594.538 244.133C593.77 243.374 592.235 242.994 589.932 242.994C589.822 240.801 590.535 239.115 592.071 237.934C593.716 236.753 596.293 236.163 599.803 236.163C603.422 236.163 605.945 237.47 607.371 240.084C610.771 237.47 614.829 236.163 619.545 236.163C624.37 236.163 627.99 237.807 630.404 241.097C634.134 237.807 638.247 236.163 642.743 236.163C647.349 236.163 650.858 237.217 653.272 239.325C655.686 241.434 656.891 244.428 656.891 248.307V288.915C656.891 290.686 657.274 291.952 658.043 292.711C658.92 293.47 660.511 293.849 662.814 293.849C662.925 296.042 662.156 297.729 660.511 298.909C658.976 300.09 656.673 300.68 653.601 300.68C650.529 300.68 648.226 299.963 646.691 298.53C645.264 297.096 644.552 294.735 644.552 291.445V249.066C644.552 246.283 642.853 244.892 639.452 244.892C636.491 244.892 634.188 246.199 632.542 248.813V289.042C632.542 293.174 632.925 296.632 633.694 299.415C630.404 299.753 626.838 299.921 623 299.921C621.137 299.921 620.203 299.289 620.203 298.024V249.066C620.203 246.283 618.504 244.892 615.103 244.892C612.142 244.892 609.839 246.199 608.193 248.813V289.042ZM683.225 289.042C683.225 293.174 683.608 296.632 684.376 299.415C681.086 299.753 677.521 299.921 673.683 299.921C671.816 299.921 670.886 299.289 670.886 298.024V247.928C670.886 246.157 670.446 244.892 669.57 244.133C668.801 243.374 667.266 242.994 664.963 242.994C664.852 240.801 665.565 239.115 667.102 237.934C668.747 236.753 671.323 236.163 674.834 236.163C678.454 236.163 680.975 237.47 682.402 240.084C685.8 237.47 689.86 236.163 694.577 236.163C699.402 236.163 703.021 237.807 705.435 241.097C709.162 237.807 713.275 236.163 717.774 236.163C722.38 236.163 725.889 237.217 728.303 239.325C730.714 241.434 731.923 244.428 731.923 248.307V288.915C731.923 290.686 732.306 291.952 733.074 292.711C733.951 293.47 735.542 293.849 737.845 293.849C737.953 296.042 737.187 297.729 735.542 298.909C734.005 300.09 731.701 300.68 728.632 300.68C725.56 300.68 723.257 299.963 721.722 298.53C720.296 297.096 719.584 294.735 719.584 291.445V249.066C719.584 246.283 717.882 244.892 714.483 244.892C711.522 244.892 709.219 246.199 707.574 248.813V289.042C707.574 293.174 707.957 296.632 708.725 299.415C705.435 299.753 701.869 299.921 698.031 299.921C696.165 299.921 695.235 299.289 695.235 298.024V249.066C695.235 246.283 693.533 244.892 690.135 244.892C687.173 244.892 684.87 246.199 683.225 248.813V289.042ZM769.276 249.699C769.276 248.012 768.618 246.705 767.302 245.777C765.986 244.765 764.341 244.259 762.366 244.259C758.307 244.259 756.279 245.566 756.279 248.181V266.271L764.176 261.717C767.577 259.777 769.276 255.771 769.276 249.699ZM743.94 288.156V248.56C743.94 240.295 750.246 236.163 762.86 236.163C775.582 236.163 781.944 240.801 781.944 250.078C781.944 253.789 781.068 257.205 779.312 260.325C777.556 263.446 775.145 265.807 772.073 267.41L756.279 275.759V287.271C756.279 290.813 758.418 292.584 762.695 292.584C767.083 292.584 769.276 290.602 769.276 286.638V283.729L768.783 277.783C770.209 277.53 771.634 277.403 773.06 277.403C774.595 277.403 776.022 277.572 777.338 277.909C779.97 278.415 781.286 279.385 781.286 280.819V289.927C781.286 293.301 779.53 295.958 776.022 297.897C772.621 299.753 768.071 300.68 762.366 300.68C750.081 300.68 743.94 296.506 743.94 288.156ZM815.861 245.524H809.445C807.581 245.524 806.044 245.988 804.838 246.916C803.741 247.759 803.193 248.898 803.193 250.331V287.65C803.193 290.602 804.784 292.078 807.964 292.078C809.609 292.078 811.144 291.614 812.571 290.686C814.105 289.674 815.203 288.62 815.861 287.524V245.524ZM815.861 220.982C815.861 218.452 815.367 215.88 814.38 213.265C817.671 211.916 821.18 211.241 824.91 211.241C827.102 211.241 828.2 211.874 828.2 213.139V288.915C828.2 290.686 828.583 291.952 829.352 292.711C830.228 293.47 831.819 293.849 834.123 293.849C834.233 296.042 833.465 297.729 831.819 298.909C830.285 300.09 828.035 300.68 825.074 300.68C820.686 300.68 817.889 299.373 816.684 296.759C813.283 299.373 809.445 300.68 805.167 300.68C800.89 300.68 797.435 299.584 794.803 297.391C792.17 295.114 790.854 291.909 790.854 287.777V250.837C790.854 246.621 792.553 243.331 795.954 240.97C799.355 238.609 803.962 237.428 809.774 237.428H815.861V220.982ZM860.096 246.41V229.332C860.096 225.115 861.96 221.826 865.69 219.464C869.42 217.103 874.409 215.922 880.661 215.922C887.023 215.922 892.067 217.018 895.797 219.211C899.527 221.32 901.391 224.103 901.391 227.56V243.247C901.391 244.765 899.964 245.819 897.113 246.41C895.579 246.747 894.041 246.916 892.507 246.916C890.972 246.916 889.435 246.789 887.9 246.536C888.229 244.512 888.394 242.362 888.394 240.084V229.332C888.394 227.729 887.682 226.506 886.255 225.663C884.828 224.735 882.964 224.271 880.661 224.271C878.358 224.271 876.494 224.735 875.068 225.663C873.751 226.506 873.093 227.729 873.093 229.332V244.133C873.093 247.084 874.355 249.151 876.877 250.331L894.316 258.934C899.252 261.295 901.72 264.922 901.72 269.813V287.271C901.72 291.488 899.8 294.777 895.962 297.138C892.124 299.5 887.023 300.68 880.661 300.68C874.409 300.68 869.363 299.626 865.525 297.518C861.687 295.325 859.767 292.5 859.767 289.042V273.355C859.767 271.837 861.194 270.783 864.045 270.193C865.579 269.855 867.117 269.687 868.651 269.687C870.186 269.687 871.723 269.813 873.258 270.066C872.929 272.09 872.764 274.241 872.764 276.518V287.271C872.764 288.789 873.533 290.012 875.068 290.939C876.602 291.867 878.522 292.331 880.826 292.331C883.129 292.331 884.993 291.867 886.419 290.939C887.954 290.012 888.723 288.789 888.723 287.271V272.976C888.723 269.687 887.242 267.325 884.281 265.891L866.842 257.163C862.346 254.97 860.096 251.386 860.096 246.41ZM928.611 276.265C924.992 278.12 923.182 281.241 923.182 285.626C923.182 289.927 924.881 292.078 928.282 292.078C931.791 292.078 934.534 290.56 936.508 287.524V272.217L928.611 276.265ZM930.421 236.163C942.706 236.163 948.847 240.337 948.847 248.687V288.915C948.847 290.686 949.23 291.952 949.999 292.711C950.875 293.47 952.466 293.849 954.77 293.849C954.88 296.042 954.112 297.729 952.466 298.909C950.932 300.09 948.682 300.68 945.721 300.68C941.114 300.68 938.318 299.373 937.331 296.759C933.93 299.373 929.927 300.68 925.321 300.68C920.714 300.68 917.041 299.331 914.298 296.632C911.555 293.933 910.185 290.307 910.185 285.753C910.185 278.837 913.969 273.608 921.537 270.066L936.508 263.235V249.572C936.508 246.03 934.315 244.259 929.927 244.259C925.65 244.259 923.511 246.241 923.511 250.205V254.38L924.004 260.325C922.578 260.578 921.097 260.705 919.562 260.705C918.136 260.705 916.766 260.536 915.449 260.199C912.817 259.693 911.501 258.723 911.501 257.289V246.916C911.501 243.542 913.2 240.928 916.601 239.072C920.11 237.133 924.717 236.163 930.421 236.163ZM961.5 220.982C961.5 219.042 961.006 216.47 960.019 213.265C963.309 211.916 966.818 211.241 970.548 211.241C972.741 211.241 973.839 211.874 973.839 213.139V288.915C973.839 290.686 974.222 291.952 974.99 292.711C975.867 293.47 977.458 293.849 979.761 293.849C979.869 296.042 979.103 297.729 977.458 298.909C975.921 300.09 973.617 300.68 970.548 300.68C967.476 300.68 965.173 299.963 963.638 298.53C962.212 297.096 961.5 294.735 961.5 291.445V220.982ZM1003 276.265C999.38 278.12 997.57 281.241 997.57 285.626C997.57 289.927 999.27 292.078 1002.67 292.078C1006.18 292.078 1008.92 290.56 1010.9 287.524V272.217L1003 276.265ZM1004.81 236.163C1017.09 236.163 1023.24 240.337 1023.24 248.687V288.915C1023.24 290.686 1023.62 291.952 1024.39 292.711C1025.26 293.47 1026.85 293.849 1029.16 293.849C1029.27 296.042 1028.5 297.729 1026.85 298.909C1025.32 300.09 1023.07 300.68 1020.11 300.68C1015.5 300.68 1012.71 299.373 1011.72 296.759C1008.32 299.373 1004.32 300.68 999.709 300.68C995.103 300.68 991.427 299.331 988.686 296.632C985.944 293.933 984.573 290.307 984.573 285.753C984.573 278.837 988.357 273.608 995.925 270.066L1010.9 263.235V249.572C1010.9 246.03 1008.7 244.259 1004.32 244.259C1000.04 244.259 997.9 246.241 997.9 250.205V254.38L998.393 260.325C996.966 260.578 995.486 260.705 993.951 260.705C992.524 260.705 991.154 260.536 989.838 260.199C987.206 259.693 985.89 258.723 985.89 257.289V246.916C985.89 243.542 987.589 240.928 990.99 239.072C994.499 237.133 999.105 236.163 1004.81 236.163ZM1035.72 220.982C1035.72 218.452 1035.23 215.88 1034.24 213.265C1037.53 211.916 1041.04 211.241 1044.77 211.241C1046.96 211.241 1048.06 211.874 1048.06 213.139V239.452C1051.46 237.259 1055.19 236.163 1059.25 236.163C1063.31 236.163 1066.6 237.217 1069.12 239.325C1071.75 241.434 1073.07 244.428 1073.07 248.307V288.915C1073.07 290.686 1073.45 291.952 1074.22 292.711C1075.1 293.47 1076.69 293.849 1078.99 293.849C1079.1 296.042 1078.33 297.729 1076.69 298.909C1075.15 300.09 1072.85 300.68 1069.78 300.68C1066.7 300.68 1064.4 299.963 1062.87 298.53C1061.44 297.096 1060.73 294.735 1060.73 291.445V249.066C1060.73 246.283 1058.86 244.892 1055.13 244.892C1052.06 244.892 1049.71 246.199 1048.06 248.813V289.042C1048.06 293.09 1048.44 296.464 1049.21 299.162C1045.92 299.668 1042.36 299.921 1038.52 299.921C1036.65 299.921 1035.72 299.289 1035.72 298.024V220.982Z" fill="#F59E0B"/>
</svg>
