<?xml version="1.0" encoding="iso-8859-1"?>
<!-- Generator: Adobe Illustrator 19.0.0, SVG Export Plug-In . SVG Version: 6.00 Build 0)  -->
<svg version="1.1" id="Layer_1" xmlns="http://www.w3.org/2000/svg" xmlns:xlink="http://www.w3.org/1999/xlink" x="0px" y="0px"
	 viewBox="0 0 290.476 290.476" style="enable-background:new 0 0 290.476 290.476;" xml:space="preserve">
<g>
	<g>
		<polygon style="fill:#F9BA48;" points="161.905,42.857 0,204.762 85.714,290.476 247.619,128.571 233.333,57.143 		"/>
		<path style="fill:#333333;" d="M76.757,213.729c-0.138-3.762-1.667-7.276-4.343-9.952c-5.795-5.795-15.224-5.795-21.019,0
			l-15.271,15.271l35.305,35.305L86.7,239.081c2.81-2.805,4.357-6.538,4.357-10.51c0-3.971-1.548-7.705-4.357-10.51
			C83.948,215.31,80.371,213.862,76.757,213.729z M79.967,232.348l-8.538,8.538l-21.838-21.838l8.538-8.538
			c2.086-2.076,5.467-2.076,7.552,0c1.01,1.01,1.567,2.348,1.567,3.776c0,1.429-0.557,2.767-1.567,3.776l-7.143,7.143l6.733,6.733
			l7.143-7.143c2.086-2.076,5.467-2.076,7.552,0c1.01,1.01,1.567,2.348,1.567,3.776C81.533,230,80.976,231.338,79.967,232.348z"/>
		<path style="fill:#333333;" d="M158.538,96.633l-8.129,8.129l35.305,35.305l8.129-8.129c4.714-4.714,7.314-10.986,7.314-17.652
			s-2.6-12.938-7.314-17.652C184.105,86.9,168.276,86.9,158.538,96.633z M187.11,125.205l-1.395,1.395l-21.838-21.838l1.395-1.395
			c6.019-6.019,15.819-6.019,21.838,0c2.914,2.919,4.524,6.795,4.524,10.919C191.633,118.41,190.024,122.286,187.11,125.205z"/>
		<path style="fill:#333333;" d="M106.733,219.048l-28.571-28.571l8.538-8.538c2.086-2.076,5.467-2.076,7.552,0
			c1.01,1.01,1.567,2.348,1.567,3.776c0,1.429-0.557,2.767-1.567,3.776l-7.143,7.143l6.733,6.733l6.895-6.895l17.857,10.714
			l6.943-6.943l-20.419-12.252c0.114-0.752,0.224-1.505,0.224-2.281c0-3.971-1.548-7.705-4.357-10.51
			c-5.795-5.795-15.224-5.795-21.019,0l-15.271,15.276L100,225.781L106.733,219.048z"/>
		<path style="fill:#333333;" d="M135.305,190.476l-14.286-14.286l12.314-12.314l14.286,14.286l6.733-6.733l-35.305-35.305
			l-25.781,25.781l35.305,35.305L135.305,190.476z M106.733,161.905l12.314-12.314l7.552,7.552l-12.314,12.314L106.733,161.905z"/>
		<polygon style="fill:#333333;" points="182.924,142.857 147.619,107.552 140.886,114.286 161.7,135.105 127.01,128.162 
			121.838,133.333 157.143,168.638 163.876,161.905 143.057,141.086 177.752,148.029 		"/>
		<path style="fill:#333333;" d="M240.476,0c-26.767,0-48.624,21.157-49.881,47.619h9.524c1.243-21.21,18.838-38.095,40.357-38.095
			c22.319,0,40.476,18.157,40.476,40.476s-18.157,40.476-40.476,40.476c-4.643,0-9.114-0.867-13.338-2.333
			c0.914-2.224,1.433-4.643,1.433-7.19c0-10.505-8.543-19.048-19.048-19.048s-19.048,8.543-19.048,19.048S199.019,100,209.524,100
			c4.333,0,8.286-1.51,11.49-3.957c6.043,2.548,12.624,3.957,19.462,3.957c27.571,0,50-22.429,50-50S268.048,0,240.476,0z
			 M219.048,80.952c0,1.062-0.214,2.062-0.533,3.014c-4.738-3.067-8.81-7.138-11.962-12.019c0.938-0.31,1.924-0.519,2.971-0.519
			C214.776,71.429,219.048,75.7,219.048,80.952z M209.524,90.476c-5.252,0-9.524-4.271-9.524-9.524c0-0.505,0.071-0.986,0.148-1.467
			c3.071,4.214,6.767,7.824,10.89,10.838C210.543,90.405,210.043,90.476,209.524,90.476z"/>
	</g>
</g>
<g>
</g>
<g>
</g>
<g>
</g>
<g>
</g>
<g>
</g>
<g>
</g>
<g>
</g>
<g>
</g>
<g>
</g>
<g>
</g>
<g>
</g>
<g>
</g>
<g>
</g>
<g>
</g>
<g>
</g>
</svg>
