<?xml version="1.0" encoding="iso-8859-1"?>
<!-- Generator: Adobe Illustrator 19.0.0, SVG Export Plug-In . SVG Version: 6.00 Build 0)  -->
<svg version="1.1" id="Layer_1" xmlns="http://www.w3.org/2000/svg" xmlns:xlink="http://www.w3.org/1999/xlink" x="0px" y="0px"
	 viewBox="0 0 512 512" style="enable-background:new 0 0 512 512;" xml:space="preserve">
<g transform="translate(1 1)">
	<polygon style="fill:#FFDD09;" points="50.2,203.8 169.667,203.8 169.667,118.467 50.2,118.467 	"/>
	<polygon style="fill:#54C9FD;" points="135.533,169.667 109.933,152.6 84.333,169.667 84.333,118.467 135.533,118.467 	"/>
	<polygon style="fill:#FFDD09;" points="169.667,203.8 289.133,203.8 289.133,84.333 169.667,84.333 	"/>
	<polygon style="fill:#54C9FD;" points="255,135.533 229.4,118.467 203.8,135.533 203.8,84.333 255,84.333 	"/>
	<path style="fill:#FFDD09;" d="M497.347,295.107L459.8,280.6L437.613,191c-1.707-7.68-8.533-12.8-16.213-12.8H314.733v93.867H7.533
		v102.4c0,5.12,3.413,8.533,8.533,8.533h42.667c0-23.893,18.773-42.667,42.667-42.667s42.667,18.773,42.667,42.667H331.8h34.133
		c0-23.893,18.773-42.667,42.667-42.667c23.893,0,42.667,18.773,42.667,42.667h42.667c5.12,0,8.533-3.413,8.533-8.533V303.64
		C502.467,300.227,500.76,296.813,497.347,295.107"/>
	<path style="fill:#FFFFFF;" d="M33.133,374.467v-102.4h-25.6v102.4c0,5.12,3.413,8.533,8.533,8.533h25.6
		C36.547,383,33.133,379.587,33.133,374.467"/>
	<path style="fill:#FD9808;" d="M497.347,295.107L459.8,280.6L437.613,191c-1.707-7.68-8.533-12.8-16.213-12.8h-25.6
		c7.68,0,14.507,5.12,16.213,12.8l22.187,89.6l37.547,14.507c3.413,1.707,5.12,4.267,5.12,7.68v71.68
		c0,5.12-3.413,8.533-8.533,8.533h25.6c5.12,0,8.533-3.413,8.533-8.533V303.64C502.467,300.227,500.76,296.813,497.347,295.107"/>
	<polygon style="fill:#FCC309;" points="33.133,272.067 314.733,272.067 314.733,203.8 33.133,203.8 	"/>
	<g>
		<path style="fill:#FFDD09;" d="M144.067,383c0-23.893-18.773-42.667-42.667-42.667S58.733,359.107,58.733,383
			c0,23.893,18.773,42.667,42.667,42.667S144.067,406.893,144.067,383"/>
		<path style="fill:#FFDD09;" d="M451.267,383c0-23.893-18.773-42.667-42.667-42.667c-23.893,0-42.667,18.773-42.667,42.667
			c0,23.893,18.773,42.667,42.667,42.667C432.493,425.667,451.267,406.893,451.267,383"/>
	</g>
	<path d="M101.4,434.2c-28.16,0-51.2-23.04-51.2-51.2s23.04-51.2,51.2-51.2s51.2,23.04,51.2,51.2S129.56,434.2,101.4,434.2z
		 M101.4,348.867c-18.773,0-34.133,15.36-34.133,34.133s15.36,34.133,34.133,34.133s34.133-15.36,34.133-34.133
		S120.173,348.867,101.4,348.867z"/>
	<path d="M101.4,400.067c-9.387,0-17.067-7.68-17.067-17.067s7.68-17.067,17.067-17.067s17.067,7.68,17.067,17.067
		S110.787,400.067,101.4,400.067"/>
	<path d="M408.6,400.067c-9.387,0-17.067-7.68-17.067-17.067s7.68-17.067,17.067-17.067c9.387,0,17.067,7.68,17.067,17.067
		S417.987,400.067,408.6,400.067"/>
	<path d="M408.6,434.2c-28.16,0-51.2-23.04-51.2-51.2s23.04-51.2,51.2-51.2c28.16,0,51.2,23.04,51.2,51.2S436.76,434.2,408.6,434.2z
		 M408.6,348.867c-18.773,0-34.133,15.36-34.133,34.133s15.36,34.133,34.133,34.133c18.773,0,34.133-15.36,34.133-34.133
		S427.373,348.867,408.6,348.867z"/>
	<path d="M459.8,289.133h-93.867c-5.12,0-8.533-3.413-8.533-8.533v-59.733c0-5.12,3.413-8.533,8.533-8.533s8.533,3.413,8.533,8.533
		v51.2H459.8c5.12,0,8.533,3.413,8.533,8.533S464.92,289.133,459.8,289.133z"/>
	<path d="M383,323.267h-17.067c-5.12,0-8.533-3.413-8.533-8.533s3.413-8.533,8.533-8.533H383c5.12,0,8.533,3.413,8.533,8.533
		S388.12,323.267,383,323.267z"/>
	<path d="M493.933,391.533h-42.667c-5.12,0-8.533-3.413-8.533-8.533c0-18.773-15.36-34.133-34.133-34.133
		c-18.773,0-34.133,15.36-34.133,34.133c0,5.12-3.413,8.533-8.533,8.533H144.067c-5.12,0-8.533-3.413-8.533-8.533
		c0-18.773-15.36-34.133-34.133-34.133S67.267,364.227,67.267,383c0,5.12-3.413,8.533-8.533,8.533H16.067
		C6.68,391.533-1,383.853-1,374.467v-102.4c0-5.12,3.413-8.533,8.533-8.533H306.2V178.2c0-5.12,3.413-8.533,8.533-8.533h105.813
		c11.947,0,22.187,7.68,24.747,19.627l21.333,85.333l33.28,13.653l0,0c6.827,2.56,11.093,8.533,11.093,16.213v69.973
		C511,383.853,503.32,391.533,493.933,391.533z M458.947,374.467h34.987V303.64l3.413-7.68l-3.413,7.68l-37.547-14.507
		c-2.56-0.853-4.267-3.413-5.12-5.973l-22.187-89.6c-0.853-3.413-4.267-6.827-8.533-6.827h-97.28v85.333
		c0,5.12-3.413,8.533-8.533,8.533H16.067v93.867h34.987C55.32,350.573,75.8,331.8,101.4,331.8s46.08,18.773,50.347,42.667h206.507
		C362.52,350.573,383,331.8,408.6,331.8C434.2,331.8,454.68,350.573,458.947,374.467z"/>
	<path d="M135.533,178.2c-1.707,0-3.413-0.853-5.12-1.707l-20.48-13.653l-20.48,13.653c-2.56,1.707-5.973,1.707-8.533,0
		c-3.413-0.853-5.12-3.413-5.12-6.827v-51.2c0-5.12,3.413-8.533,8.533-8.533h51.2c5.12,0,8.533,3.413,8.533,8.533v51.2
		c0,3.413-1.707,5.973-4.267,7.68C138.093,178.2,137.24,178.2,135.533,178.2z M109.933,144.067c1.707,0,3.413,0.853,5.12,1.707
		L127,154.307V127H92.867v26.453l11.947-8.533C106.52,144.92,108.227,144.067,109.933,144.067z"/>
	<path d="M289.133,212.333H169.667c-5.12,0-8.533-3.413-8.533-8.533V84.333c0-5.12,3.413-8.533,8.533-8.533h119.467
		c5.12,0,8.533,3.413,8.533,8.533V203.8C297.667,208.92,294.253,212.333,289.133,212.333z M178.2,195.267h102.4v-102.4H178.2
		V195.267z"/>
	<path d="M255,144.067c-1.707,0-3.413-0.853-5.12-1.707l-20.48-13.653l-20.48,13.653c-2.56,1.707-5.973,1.707-8.533,0
		c-3.413-0.853-5.12-3.413-5.12-6.827v-51.2c0-5.12,3.413-8.533,8.533-8.533H255c5.12,0,8.533,3.413,8.533,8.533v51.2
		c0,3.413-1.707,5.973-4.267,7.68C257.56,144.067,256.707,144.067,255,144.067z M229.4,109.933c1.707,0,3.413,0.853,5.12,1.707
		l11.947,8.533V92.867h-34.133v26.453l11.947-8.533C225.987,110.787,227.693,109.933,229.4,109.933z"/>
	<path d="M314.733,280.6h-281.6c-5.12,0-8.533-3.413-8.533-8.533V203.8c0-5.12,3.413-8.533,8.533-8.533h281.6
		c5.12,0,8.533,3.413,8.533,8.533v68.267C323.267,277.187,319.853,280.6,314.733,280.6z M41.667,263.533H306.2v-51.2H41.667V263.533
		z"/>
	<path d="M169.667,212.333H50.2c-5.12,0-8.533-3.413-8.533-8.533v-85.333c0-5.12,3.413-8.533,8.533-8.533h119.467
		c5.12,0,8.533,3.413,8.533,8.533V203.8C178.2,208.92,174.787,212.333,169.667,212.333z M58.733,195.267h102.4V127h-102.4V195.267z"
		/>
</g>
<g>
</g>
<g>
</g>
<g>
</g>
<g>
</g>
<g>
</g>
<g>
</g>
<g>
</g>
<g>
</g>
<g>
</g>
<g>
</g>
<g>
</g>
<g>
</g>
<g>
</g>
<g>
</g>
<g>
</g>
</svg>
