<?xml version="1.0" encoding="iso-8859-1"?>
<!-- Generator: Adobe Illustrator 19.0.0, SVG Export Plug-In . SVG Version: 6.00 Build 0)  -->
<svg version="1.1" id="Layer_1" xmlns="http://www.w3.org/2000/svg" xmlns:xlink="http://www.w3.org/1999/xlink" x="0px" y="0px"
	 viewBox="0 0 512 512" style="enable-background:new 0 0 512 512;" xml:space="preserve">
<polyline style="fill:#E04F5F;" points="178.912,256.96 178.912,512 262.256,438.384 340.032,510.656 340.032,251.04 "/>
<circle style="fill:#F2B851;" cx="256" cy="145.12" r="145.12"/>
<g>
	<path style="fill:#FFFFFF;" d="M232.272,221.824h-29.12V112.048c-10.64,9.952-23.184,17.312-37.632,22.08V107.68
		c7.6-2.48,15.856-7.2,24.768-14.144c8.928-6.944,15.024-15.04,18.352-24.304h23.632L232.272,221.824L232.272,221.824z"/>
	<path style="fill:#FFFFFF;" d="M258.88,126.64l11.152-1.088c0.672,3.744,2.048,6.512,4.096,8.272c2.064,1.76,4.832,2.64,8.336,2.64
		c3.68,0,6.48-0.784,8.352-2.336c1.856-1.568,2.8-3.392,2.8-5.488c0-1.344-0.384-2.48-1.168-3.424
		c-0.8-0.944-2.176-1.76-4.144-2.464c-1.344-0.464-4.4-1.296-9.184-2.48c-6.16-1.52-10.464-3.392-12.96-5.632
		c-3.488-3.12-5.232-6.944-5.232-11.44c0-2.896,0.832-5.6,2.464-8.128c1.648-2.512,4-4.432,7.088-5.76s6.816-1.984,11.184-1.984
		c7.136,0,12.496,1.568,16.112,4.688s5.504,7.296,5.68,12.528l-11.488,0.496c-0.48-2.928-1.552-5.008-3.152-6.304
		s-4.048-1.92-7.264-1.92c-3.344,0-5.952,0.688-7.84,2.048c-1.216,0.88-1.808,2.048-1.808,3.536c0,1.344,0.56,2.496,1.696,3.456
		c1.44,1.216,4.96,2.48,10.544,3.792c5.584,1.328,9.712,2.672,12.384,4.096c2.672,1.408,4.768,3.328,6.288,5.776
		s2.272,5.456,2.272,9.056c0,3.264-0.912,6.32-2.72,9.152c-1.792,2.848-4.352,4.96-7.664,6.336c-3.312,1.376-7.44,2.08-12.368,2.08
		c-7.184,0-12.704-1.664-16.56-4.992C261.92,137.84,259.632,132.992,258.88,126.64z"/>
	<path style="fill:#FFFFFF;" d="M327.552,145.136V97.904h-16.88v-9.616h45.184v9.616h-16.848v47.232H327.552z"/>
</g>
<g>
</g>
<g>
</g>
<g>
</g>
<g>
</g>
<g>
</g>
<g>
</g>
<g>
</g>
<g>
</g>
<g>
</g>
<g>
</g>
<g>
</g>
<g>
</g>
<g>
</g>
<g>
</g>
<g>
</g>
</svg>
